<svg width="180" height="24" viewBox="0 0 180 24" fill="none" xmlns="http://www.w3.org/2000/svg">
<path d="M61.1778 16.7888C60.4483 17.2569 59.5932 17.4909 58.623 17.4909C57.3043 17.4909 56.2335 17.076 55.4107 16.2426C54.5878 15.4128 54.1782 14.3418 54.1782 13.0154C54.1782 11.6891 54.5878 10.6181 55.4107 9.78821C56.2335 8.95481 57.3043 8.53989 58.623 8.53989C59.5932 8.53989 60.4519 8.77395 61.1778 9.24207C61.9072 9.71728 62.4354 10.3485 62.7552 11.15H66.4094C66.0465 9.36974 65.1554 7.93346 63.7433 6.84117C62.3348 5.75244 60.628 5.2063 58.6194 5.2063C56.2443 5.2063 54.3004 5.9404 52.7876 7.41215C51.2821 8.88389 50.5239 10.7528 50.5239 13.0154C50.5239 15.278 51.2785 17.1469 52.7876 18.6187C54.3004 20.0904 56.2443 20.8245 58.6194 20.8245C60.628 20.8245 62.3348 20.2784 63.7433 19.1897C65.1554 18.0938 66.0465 16.6611 66.4094 14.8808H62.7552C62.4354 15.6823 61.9036 16.3135 61.1778 16.7888Z" fill="#3D3D3D"/>
<path d="M81.4944 7.41575C79.9816 5.944 78.0377 5.2099 75.6626 5.2099C73.2875 5.2099 71.3436 5.944 69.838 7.41575C68.3253 8.88749 67.5671 10.7564 67.5671 13.019C67.5671 15.2816 68.3217 17.1506 69.838 18.6223C71.3436 20.0941 73.2875 20.8282 75.6626 20.8282C78.0377 20.8282 79.9816 20.0941 81.4944 18.6223C83.0035 17.1506 83.7581 15.2816 83.7581 13.019C83.7581 10.7564 83.0035 8.88749 81.4944 7.41575ZM78.8606 16.2427C78.0485 17.0761 76.9849 17.491 75.6626 17.491C74.3403 17.491 73.2767 17.0761 72.4539 16.2427C71.631 15.4128 71.2178 14.3418 71.2178 13.0155C71.2178 11.6891 71.631 10.6181 72.4539 9.78828C73.2767 8.95488 74.3439 8.53995 75.6626 8.53995C76.9813 8.53995 78.0485 8.95488 78.8606 9.78828C79.6726 10.6181 80.0751 11.6891 80.0751 13.0155C80.0751 14.3418 79.6726 15.4128 78.8606 16.2427Z" fill="#3D3D3D"/>
<path d="M86.0432 0.301819V20.4346H89.658V0.301819H86.0432Z" fill="#3D3D3D"/>
<path d="M93.0745 0.301819V20.4346H96.6964V0.301819H93.0745Z" fill="#3D3D3D"/>
<path d="M112.883 7.38732C111.399 5.9333 109.459 5.2063 107.069 5.2063C104.68 5.2063 102.75 5.9404 101.245 7.41215C99.7318 8.88389 98.9736 10.7528 98.9736 13.0154C98.9736 15.4802 99.7174 17.3952 101.209 18.7641C102.7 20.1365 104.428 20.8245 106.397 20.8245C107.655 20.8245 108.751 20.5408 109.681 19.9699C110.616 19.3989 111.295 18.6364 111.719 17.6718H111.78V20.4344H115.1V13.136C115.1 10.7528 114.36 8.83779 112.879 7.38732H112.883ZM110.267 16.2426C109.455 17.076 108.391 17.4909 107.069 17.4909C105.747 17.4909 104.68 17.076 103.86 16.2426C103.038 15.4128 102.624 14.3418 102.624 13.0154C102.624 11.6891 103.038 10.6181 103.86 9.78821C104.676 8.95481 105.75 8.53989 107.069 8.53989C108.388 8.53989 109.455 8.95481 110.267 9.78821C111.079 10.6181 111.482 11.6891 111.482 13.0154C111.482 14.3418 111.079 15.4128 110.267 16.2426Z" fill="#3D3D3D"/>
<path d="M131.367 7.26691C129.876 5.89446 128.144 5.20647 126.179 5.20647C125.065 5.20647 124.07 5.42988 123.196 5.86609C122.323 6.30584 121.644 6.90517 121.159 7.67119H121.098V0.301819H117.476V12.8985C117.476 15.2817 118.216 17.1968 119.697 18.6472C121.177 20.1012 123.114 20.8283 125.51 20.8283C127.907 20.8283 129.829 20.0942 131.335 18.6224C132.848 17.1507 133.606 15.2817 133.606 13.0191C133.606 10.5544 132.862 8.63935 131.371 7.27045L131.367 7.26691ZM128.716 16.2428C127.9 17.0762 126.826 17.4911 125.507 17.4911C124.188 17.4911 123.121 17.0762 122.309 16.2428C121.497 15.4129 121.094 14.3419 121.094 13.0156C121.094 11.6892 121.497 10.6182 122.309 9.78838C123.121 8.95498 124.185 8.54006 125.507 8.54006C126.829 8.54006 127.896 8.95498 128.716 9.78838C129.538 10.6182 129.952 11.6892 129.952 13.0156C129.952 14.3419 129.538 15.4129 128.716 16.2428Z" fill="#3D3D3D"/>
<path d="M149.25 7.26691C147.759 5.89446 146.031 5.20647 144.065 5.20647C142.951 5.20647 141.956 5.42988 141.083 5.86609C140.21 6.30584 139.531 6.90517 139.038 7.67119H138.977V0.301819H135.355V12.8985C135.355 15.2817 136.099 17.1968 137.579 18.6472C139.06 20.1012 140.997 20.8283 143.393 20.8283C145.79 20.8283 147.705 20.0942 149.218 18.6224C150.731 17.1507 151.489 15.2817 151.489 13.0191C151.489 10.5544 150.745 8.63935 149.247 7.27045L149.25 7.26691ZM146.606 16.2428C145.783 17.0762 144.712 17.4911 143.397 17.4911C142.082 17.4911 141.011 17.0762 140.199 16.2428C139.387 15.4129 138.977 14.3419 138.977 13.0156C138.977 11.6892 139.387 10.6182 140.199 9.78838C141.011 8.95498 142.075 8.54006 143.397 8.54006C144.719 8.54006 145.783 8.95498 146.606 9.78838C147.428 10.6182 147.838 11.6892 147.838 13.0156C147.838 14.3419 147.428 15.4129 146.606 16.2428Z" fill="#3D3D3D"/>
<path d="M162.922 5.2063V8.53989H159.861C157.874 8.53989 156.878 9.62863 156.878 11.8167V20.4309H153.256V11.8167C153.256 9.63217 153.853 7.98665 155.039 6.87309C156.224 5.76307 157.834 5.2063 159.857 5.2063H162.918H162.922Z" fill="#3D3D3D"/>
<path d="M177.735 7.41575C176.222 5.944 174.278 5.2099 171.903 5.2099C169.528 5.2099 167.584 5.944 166.079 7.41575C164.566 8.88749 163.808 10.7564 163.808 13.019C163.808 15.2816 164.562 17.1506 166.079 18.6223C167.588 20.0941 169.528 20.8282 171.903 20.8282C174.278 20.8282 176.222 20.0941 177.735 18.6223C179.24 17.1506 179.999 15.2816 179.999 13.019C179.999 10.7564 179.24 8.88749 177.735 7.41575ZM175.101 16.2427C174.289 17.0761 173.225 17.491 171.903 17.491C170.581 17.491 169.514 17.0761 168.694 16.2427C167.872 15.4128 167.458 14.3418 167.458 13.0155C167.458 11.6891 167.872 10.6181 168.694 9.78828C169.51 8.95488 170.584 8.53995 171.903 8.53995C173.222 8.53995 174.289 8.95488 175.101 9.78828C175.913 10.6181 176.316 11.6891 176.316 13.0155C176.316 14.3418 175.913 15.4128 175.101 16.2427Z" fill="#3D3D3D"/>
<path d="M37.8931 13.244C37.8931 19.0095 33.2046 23.698 27.4391 23.698C25.2014 23.698 23.1311 22.994 21.4262 21.7914L24.9236 19.2835C25.6961 19.607 26.5486 19.7858 27.4391 19.7858C31.0468 19.7858 33.9809 16.8517 33.9809 13.244C33.9809 9.63623 31.0468 6.70209 27.4391 6.70209C26.3126 6.70209 25.2546 6.98752 24.3299 7.48986C23.8504 7.74864 23.4089 8.06831 23.0093 8.43746L22.9979 8.44506L20.4634 10.2642L16.9965 12.753L16.966 12.7759L12.2889 16.1324L12.1291 16.2466C10.6373 17.2322 8.4338 16.5282 7.21219 14.6787C5.99059 12.8253 6.20751 10.5267 7.69931 9.54108C9.19112 8.55543 11.3946 9.25947 12.6162 11.109C12.6276 11.128 12.6428 11.1471 12.6542 11.1661L15.5123 9.11486L18.6938 6.83148L20.041 5.86485C21.9361 3.96585 24.5544 2.78992 27.4391 2.78992C33.2046 2.78992 37.8931 7.47844 37.8931 13.244Z" fill="#8C60FF"/>
<path d="M30.1824 16.9508C28.6906 17.9364 26.4871 17.2324 25.2655 15.3828C25.2541 15.3676 25.2465 15.3524 25.2389 15.3372L22.3847 17.3846L19.2032 19.668L17.7684 20.6993C15.8809 22.5526 13.2968 23.6981 10.4502 23.6981C4.68472 23.6981 0 19.0096 0 13.2441C0 7.47856 4.68852 2.79004 10.4502 2.79004C12.7146 2.79004 14.8153 3.5131 16.5278 4.74612L13.0495 7.24262C12.2541 6.89631 11.375 6.70222 10.4502 6.70222C6.84631 6.70222 3.91218 9.63635 3.91218 13.2441C3.91218 16.8518 6.84631 19.7859 10.4502 19.7859C11.5082 19.7859 12.5053 19.5348 13.3882 19.0895C13.8829 18.8383 14.3396 18.5263 14.7506 18.1647L17.4526 16.3381L20.8776 13.8796L20.9233 13.8454L25.1095 10.8427C25.4863 10.5611 25.589 10.4546 25.8364 10.2909C27.3282 9.30526 29.4403 9.96363 30.6619 11.8132C31.8835 13.6665 31.6628 15.9651 30.171 16.9508H30.1824Z" fill="#8C60FF"/>
</svg>
